0
SECTION
2
HEADER
9
$INSUNITS
70
4
9
$ACADVER
1
AC1014
9
$HANDSEED
5
FFFF
0
ENDSEC
0
SECTION
2
TABLES
0
TABLE
2
VPORT
5
8
100
AcDbSymbolTable
0
ENDTAB
0
TABLE
2
LTYPE
5
5
100
AcDbSymbolTable
0
LTYPE
5
14
100
AcDbSymbolTableRecord
100
AcDbLinetypeTableRecord
2
BYBLOCK
70
0
0
LTYPE
5
15
100
AcDbSymbolTableRecord
100
AcDbLinetypeTableRecord
2
BYLAYER
70
0
0
ENDTAB
0
TABLE
2
LAYER
5
2
100
AcDbSymbolTable
70
2
0
LAYER
5
50
100
AcDbSymbolTableRecord
100
AcDbLayerTableRecord
2
0
70
0
6
CONTINUOUS
0
ENDTAB
0
TABLE
2
STYLE
5
3
100
AcDbSymbolTable
70
1
0
STYLE
5
11
100
AcDbSymbolTableRecord
100
AcDbTextStyleTableRecord
2
STANDARD
70
0
0
ENDTAB
0
TABLE
2
VIEW
5
6
100
AcDbSymbolTable
70
0
0
ENDTAB
0
TABLE
2
UCS
5
7
100
AcDbSymbolTable
70
0
0
ENDTAB
0
TABLE
2
APPID
5
9
100
AcDbSymbolTable
70
2
0
APPID
5
12
100
AcDbSymbolTableRecord
100
AcDbRegAppTableRecord
2
ACAD
70
0
0
ENDTAB
0
TABLE
2
DIMSTYLE
5
A
100
AcDbSymbolTable
70
1
0
ENDTAB
0
TABLE
2
BLOCK_RECORD
5
1
100
AcDbSymbolTable
70
1
0
BLOCK_RECORD
5
1F
100
AcDbSymbolTableRecord
100
AcDbBlockTableRecord
2
*MODEL_SPACE
0
BLOCK_RECORD
5
1B
100
AcDbSymbolTableRecord
100
AcDbBlockTableRecord
2
*PAPER_SPACE
0
ENDTAB
0
ENDSEC
0
SECTION
2
BLOCKS
0
BLOCK
5
20
100
AcDbEntity
100
AcDbBlockBegin
2
*MODEL_SPACE
0
ENDBLK
5
21
100
AcDbEntity
100
AcDbBlockEnd
0
BLOCK
5
1C
100
AcDbEntity
100
AcDbBlockBegin
2
*PAPER_SPACE
0
ENDBLK
5
1D
100
AcDbEntity
100
AcDbBlockEnd
0
ENDSEC
0
SECTION
2
ENTITIES
0
LWPOLYLINE
5
100
100
AcDbEntity
8
0
100
AcDbPolyline
90
6
70
1
43
0.0
10
-105.45299521900411
20
-10.000000149011612
10
-108.33974660796818
20
-5.000000074505806
10
-114.11324938589632
20
-5.000000074505806
10
-117.0000007748604
20
-10.000000149011612
10
-114.11324938589632
20
-15.000000223517418
10
-108.33974660796818
20
-15.000000223517418
0
LWPOLYLINE
5
101
100
AcDbEntity
8
0
100
AcDbPolyline
90
6
70
1
43
0.0
10
-15.886750614103669
20
5.0000000745058131
10
-12.9999992251396
20
10.000000149011614
10
-15.886750614103669
20
15.00000022351742
10
-21.660253392031823
20
15.000000223517418
10
-24.547004780995898
20
10.000000149011614
10
-21.660253392031823
20
5.000000074505814
0
LWPOLYLINE
5
102
100
AcDbEntity
8
0
100
AcDbPolyline
90
6
70
1
43
0.0
10
-127.00000927964354
20
0
10
-124.11325793369541
20
-4.9999999999999982
10
-118.33975524179917
20
-4.9999999999999938
10
-115.45300389585101
20
3.8857805861880479e-15
10
-118.33975524179917
20
4.9999999999999991
10
-124.11325793369541
20
4.9999999999999956
0
LWPOLYLINE
5
103
100
AcDbEntity
8
0
100
AcDbPolyline
90
6
70
1
43
0.0
10
-15.886750614103669
20
-5.0000000745058131
10
-21.660253392031823
20
-5.000000074505814
10
-24.547004780995898
20
-10.000000149011614
10
-21.660253392031823
20
-15.000000223517418
10
-15.886750614103669
20
-15.00000022351742
10
-12.9999992251396
20
-10.000000149011614
0
LWPOLYLINE
5
104
100
AcDbEntity
8
0
100
AcDbPolyline
90
6
70
1
43
0.0
10
-14.546996104148979
20
3.8857805861880479e-15
10
-11.660244758200848
20
-4.9999999999999938
10
-5.8867420663045955
20
-4.9999999999999982
10
-2.9999907203564646
20
0
10
-5.8867420663045955
20
4.9999999999999956
10
-11.660244758200839
20
4.9999999999999991
0
LWPOLYLINE
5
105
100
AcDbEntity
8
0
100
AcDbPolyline
90
6
70
1
43
0.0
10
-117.0000007748604
20
10.000000149011612
10
-114.11324938589632
20
5.000000074505806
10
-108.33974660796818
20
5.000000074505806
10
-105.45299521900411
20
10.000000149011612
10
-108.33974660796818
20
15.000000223517418
10
-114.11324938589632
20
15.000000223517418
0
LWPOLYLINE
5
106
100
AcDbEntity
8
0
100
AcDbPolyline
90
4
70
1
43
0.0
10
-58.999999910593033
20
73.500001095235348
10
-62.999999970197671
20
73.500001095235348
10
-62.999999970197671
20
66.000000983476639
10
-58.999999910593026
20
66.000000983476639
0
LWPOLYLINE
5
107
100
AcDbEntity
8
0
100
AcDbPolyline
90
4
70
1
43
0.0
10
-62.999999970197671
20
-73.500001095235348
10
-58.999999910593033
20
-73.500001095235348
10
-58.999999910593026
20
-66.000000983476639
10
-62.999999970197671
20
-66.000000983476639
0
LWPOLYLINE
5
108
100
AcDbEntity
8
0
100
AcDbPolyline
90
4
70
1
43
0.0
10
-67.000000029802337
20
-73.500001095235348
10
-67.000000029802337
20
-66.000000983476639
10
-71.000000089406981
20
-66.000000983476639
10
-71.000000089406967
20
-73.500001095235348
0
LWPOLYLINE
5
109
100
AcDbEntity
8
0
100
AcDbPolyline
90
4
70
1
43
0.0
10
-67.000000029802337
20
73.500001095235348
10
-71.000000089406981
20
73.500001095235348
10
-71.000000089406953
20
66.000000983476639
10
-67.000000029802308
20
66.000000983476639
0
LWPOLYLINE
5
110
100
AcDbEntity
8
0
100
AcDbPolyline
90
4
70
1
43
0.0
10
-50.999999791383743
20
73.500001095235348
10
-55.499999858438962
20
73.500001095235348
10
-55.499999858438962
20
66.000000983476653
10
-50.999999791383736
20
66.000000983476639
0
LWPOLYLINE
5
111
100
AcDbEntity
8
0
100
AcDbPolyline
90
4
70
1
43
0.0
10
-50.999999791383743
20
-73.500001095235348
10
-50.999999791383736
20
-66.000000983476639
10
-55.499999858438962
20
-66.000000983476653
10
-55.499999858438969
20
-73.500001095235348
0
LWPOLYLINE
5
112
100
AcDbEntity
8
0
100
AcDbPolyline
90
4
70
1
43
0.0
10
-74.500000141561031
20
-73.500001095235348
10
-74.500000141561046
20
-66.000000983476653
10
-79.000000208616271
20
-66.000000983476639
10
-79.000000208616257
20
-73.500001095235348
0
LWPOLYLINE
5
113
100
AcDbEntity
8
0
100
AcDbPolyline
90
4
70
1
43
0.0
10
-74.500000141561046
20
73.500001095235348
10
-79.000000208616271
20
73.500001095235348
10
-79.000000208616271
20
66.000000983476639
10
-74.500000141561046
20
66.000000983476653
0
CIRCLE
5
114
100
AcDbEntity
8
0
100
AcDbCircle
10
-84.900001067435369
20
28.121163267647269
30
0
40
1.9999999999999929
210
0
220
-0
230
1
0
CIRCLE
5
115
100
AcDbEntity
8
0
100
AcDbCircle
10
-40.999999083578587
20
79.299998227506876
30
0
40
2.0000000000000018
210
0
220
-0
230
1
0
CIRCLE
5
116
100
AcDbEntity
8
0
100
AcDbCircle
10
-57.10803899353138
20
28.121163267647269
30
0
40
2.0000000000000018
210
0
220
-0
230
1
0
CIRCLE
5
117
100
AcDbEntity
8
0
100
AcDbCircle
10
-89.900001130299643
20
79.299998227506876
30
0
40
1.9999999999999929
210
0
220
-0
230
1
0
SPLINE
5
118
100
AcDbEntity
8
0
100
AcDbSpline
70
0
71
3
72
14
73
10
74
0
42
0.000000001
43
0.0000000001
44
0.0000000001
40
-0.73356080496760734
40
-0.73356080496760734
40
-0.73356080496760734
40
-0.73356080496760734
40
-0.69954426221620025
40
-0.69954426221620025
40
-0.69954426221620025
40
-0.50319341115867866
40
-0.50319341115867866
40
-0.50319341115867866
40
-0.45400056278573053
40
-0.45400056278573053
40
-0.45400056278573053
40
-0.45400056278573053
10
-44.732575866212358
20
109.55823079056555
30
0
10
-43.913645276709701
20
109.46903892887109
30
0
10
-43.097779620301054
20
109.37515284082787
30
0
10
-42.284099947637301
20
109.27701686294131
30
0
10
-37.587364674352514
20
108.71055474719343
30
0
10
-32.937182012850045
20
108.02015614863697
30
0
10
-28.368301484826009
20
107.17524280487086
30
0
10
-27.223634956320065
20
106.96356206203573
30
0
10
-26.083823181907441
20
106.74201858067983
30
0
10
-24.956913009269599
20
106.50605545815679
30
0
0
ARC
5
119
100
AcDbEntity
8
0
100
AcDbCircle
10
-24.956913009269609
20
105.44605836122602
30
0
40
1.0599970969307499
210
0
220
0
230
1
100
AcDbArc
50
-90.00005262117169
51
89.999999999999616
0
SPLINE
5
120
100
AcDbEntity
8
0
100
AcDbSpline
70
0
71
3
72
14
73
10
74
0
42
0.000000001
43
0.0000000001
44
0.0000000001
40
0.44793295107851372
40
0.44793295107851372
40
0.44793295107851372
40
0.44793295107851372
40
0.5251681484258135
40
0.5251681484258135
40
0.5251681484258135
40
0.72102349478973948
40
0.72102349478973948
40
0.72102349478973948
40
0.73052872202410113
40
0.73052872202410113
40
0.73052872202410113
40
0.73052872202410113
10
-24.956913982784407
20
104.38606126429531
30
0
10
-26.68934348876283
20
104.75644638854166
30
0
10
-28.465572705595964
20
105.09212494075454
30
0
10
-30.252771446910209
20
105.4064632961625
30
0
10
-34.784803998433325
20
106.20357199256492
30
0
10
-39.394925590590205
20
106.86571442649743
30
0
10
-44.053731577979683
20
107.3941834081561
30
0
10
-44.279832168916109
20
107.41983099884094
30
0
10
-44.506106665463598
20
107.44512421252706
30
0
10
-44.732575866141282
20
107.47005370474878
30
0
0
ARC
5
121
100
AcDbEntity
8
0
100
AcDbCircle
10
-44.732575866176809
20
108.51414224765718
30
0
40
1.0440885429083657
210
0
220
0
230
1
100
AcDbArc
50
90.000000001950767
51
270.00000000194962
0
CIRCLE
5
122
100
AcDbEntity
8
0
100
AcDbCircle
10
-50
20
-25.00000037252903
30
0
40
2.5
210
0
220
-0
230
1
0
SPLINE
5
123
100
AcDbEntity
8
0
100
AcDbSpline
70
0
71
3
72
14
73
10
74
0
42
0.000000001
43
0.0000000001
44
0.0000000001
40
0.44808260654973725
40
0.44808260654973725
40
0.44808260654973725
40
0.44808260654973725
40
0.46682395271262733
40
0.46682395271262733
40
0.46682395271262733
40
0.66649025807489282
40
0.66649025807489282
40
0.66649025807489282
40
0.73050509247134632
40
0.73050509247134632
40
0.73050509247134632
40
0.73050509247134632
10
-105.02598580566655
20
-104.38606124825634
30
0
10
-104.60583172800121
20
-104.47608762866633
30
0
10
-104.18329620785838
20
-104.56406726890231
30
0
10
-103.7588982145258
20
-104.65018173059048
30
0
10
-99.237452497906645
20
-105.56762684120814
30
0
10
-94.536042029910419
20
-106.30228816339371
30
0
10
-89.822223096729829
20
-106.91983598570891
30
0
10
-88.31092985255961
20
-107.117827437024
30
0
10
-86.796250142385318
20
-107.30218518129462
30
0
10
-85.272084827751826
20
-107.47005370475669
30
0
0
ARC
5
124
100
AcDbEntity
8
0
100
AcDbCircle
10
-85.272084827752224
20
-108.47583757449534
30
0
40
1.0057838697335875
210
-0
220
0
230
1
100
AcDbArc
50
-89.999999999966818
51
89.999999999977348
0
SPLINE
5
125
100
AcDbEntity
8
0
100
AcDbSpline
70
0
71
3
72
14
73
10
74
0
42
0.000000001
43
0.0000000001
44
0.0000000001
40
-0.73350543966292392
40
-0.73350543966292392
40
-0.73350543966292392
40
-0.73350543966292392
40
-0.67539136332603866
40
-0.67539136332603866
40
-0.67539136332603866
40
-0.47121791390623557
40
-0.47121791390623557
40
-0.47121791390623557
40
-0.45419524522572219
40
-0.45419524522572219
40
-0.45419524522572219
40
-0.45419524522572219
10
-85.272084827751641
20
-109.48162144422894
30
0
10
-86.670964451788635
20
-109.32918450048572
30
0
10
-88.060797375085656
20
-109.16302652481811
30
0
10
-89.445928345086685
20
-108.98535498645515
30
0
10
-94.312339133479597
20
-108.36113770317597
30
0
10
-99.1502462067387
20
-107.61436029433264
30
0
10
-103.85323448909762
20
-106.67142897557177
30
0
10
-104.24533939581508
20
-106.59281342848003
30
0
10
-104.63637464443494
20
-106.51271441507278
30
0
10
-105.02598670210159
20
-106.43093606043833
30
0
0
ARC
5
126
100
AcDbEntity
8
0
100
AcDbCircle
10
-105.02598670217051
20
-105.40849855829372
30
0
40
1.0224375021446086
210
0
220
0
230
1
100
AcDbArc
50
90.000000000000796
51
270.00000000386228
0
SPLINE
5
127
100
AcDbEntity
8
0
100
AcDbSpline
70
0
71
3
72
14
73
10
74
0
42
0.000000001
43
0.0000000001
44
0.0000000001
40
-0.73052872202410113
40
-0.73052872202410113
40
-0.73052872202410113
40
-0.73052872202410113
40
-0.72102349478973948
40
-0.72102349478973948
40
-0.72102349478973948
40
-0.5251681484258135
40
-0.5251681484258135
40
-0.5251681484258135
40
-0.44793295107851372
40
-0.44793295107851372
40
-0.44793295107851372
40
-0.44793295107851372
10
-44.732575866141282
20
-107.47005370474878
30
0
10
-44.506106665463598
20
-107.44512421252706
30
0
10
-44.279832168916109
20
-107.41983099884094
30
0
10
-44.053731577979683
20
-107.3941834081561
30
0
10
-39.394925590590205
20
-106.86571442649743
30
0
10
-34.784803998433325
20
-106.20357199256492
30
0
10
-30.252771446910209
20
-105.4064632961625
30
0
10
-28.465572705595964
20
-105.09212494075454
30
0
10
-26.68934348876283
20
-104.75644638854166
30
0
10
-24.956913982784407
20
-104.38606126429531
30
0
0
ARC
5
128
100
AcDbEntity
8
0
100
AcDbCircle
10
-24.956913009269588
20
-105.44605836122602
30
0
40
1.0599970969307471
210
0
220
0
230
1
100
AcDbArc
50
-90.000000000000611
51
89.999999999999417
0
SPLINE
5
129
100
AcDbEntity
8
0
100
AcDbSpline
70
0
71
3
72
14
73
10
74
0
42
0.000000001
43
0.0000000001
44
0.0000000001
40
0.45400056278573053
40
0.45400056278573053
40
0.45400056278573053
40
0.45400056278573053
40
0.50319341115867866
40
0.50319341115867866
40
0.50319341115867866
40
0.69954426221620025
40
0.69954426221620025
40
0.69954426221620025
40
0.73356080496760734
40
0.73356080496760734
40
0.73356080496760734
40
0.73356080496760734
10
-24.956913009269599
20
-106.50605545815679
30
0
10
-26.083823181907441
20
-106.74201858067983
30
0
10
-27.223634956320065
20
-106.96356206203573
30
0
10
-28.368301484826009
20
-107.17524280487086
30
0
10
-32.937182012850045
20
-108.02015614863697
30
0
10
-37.587364674352514
20
-108.71055474719343
30
0
10
-42.284099947637301
20
-109.27701686294131
30
0
10
-43.097779620301054
20
-109.37515284082787
30
0
10
-43.913645276709701
20
-109.46903892887109
30
0
10
-44.732575866212358
20
-109.55823079056555
30
0
0
ARC
5
130
100
AcDbEntity
8
0
100
AcDbCircle
10
-44.732575866176816
20
-108.51414224765716
30
0
40
1.0440885429083835
210
0
220
-0
230
1
100
AcDbArc
50
89.999999998050015
51
269.99999999804925
0
CIRCLE
5
131
100
AcDbEntity
8
0
100
AcDbCircle
10
-73.299999999958331
20
-91.709046596707111
30
0
40
0.94999999999999751
210
0
220
-0
230
1
0
CIRCLE
5
132
100
AcDbEntity
8
0
100
AcDbCircle
10
-50
20
25.00000037252903
30
0
40
2.5
210
0
220
-0
230
1
0
ARC
5
133
100
AcDbEntity
8
0
100
AcDbCircle
10
-59.985981798777829
20
109.48417546027565
30
0
40
1.0000768465348742
210
0
220
0
230
1
100
AcDbArc
50
-90.000000080221582
51
89.999999919779256
0
SPLINE
5
134
100
AcDbEntity
8
0
100
AcDbSpline
70
0
71
3
72
11
73
7
74
0
42
0.000000001
43
0.0000000001
44
0.0000000001
40
0.93708580945583098
40
0.93708580945583098
40
0.93708580945583098
40
0.93708580945583098
40
1
40
1
40
1
40
1.0007620269816804
40
1.0007620269816804
40
1.0007620269816804
40
1.0007620269816804
10
-59.985981800178067
20
108.48409861374078
30
0
10
-61.605979253024543
20
108.51526540219862
30
0
10
-63.254307450417677
20
108.5216013962571
30
0
10
-64.936997411998959
20
108.5003969483663
30
0
10
-64.957998275276566
20
108.50013230560904
30
0
10
-64.978999138554173
20
108.49986766285178
30
0
10
-65.000000001831623
20
108.49960302009457
30
0
0
SPLINE
5
135
100
AcDbEntity
8
0
100
AcDbSpline
70
0
71
3
72
11
73
7
74
0
42
0.000000001
43
0.0000000001
44
0.0000000001
40
-1.0007620269373623
40
-1.0007620269373623
40
-1.0007620269373623
40
-1.0007620269373623
40
-1
40
-1
40
-1
40
-0.93754047557793074
40
-0.93754047557793074
40
-0.93754047557793074
40
-0.93754047557793074
10
-65.000000001832788
20
108.4996030201407
30
0
10
-65.02100086388856
20
108.49986766288259
30
0
10
-65.0420017259448
20
108.50013230562445
30
0
10
-65.063002588001027
20
108.5003969483663
30
0
10
-66.733532143274758
20
108.52144815667774
30
0
10
-68.370587294378055
20
108.51535732989501
30
0
10
-69.979833337661304
20
108.48477686422535
30
0
0
ARC
5
136
100
AcDbEntity
8
0
100
AcDbCircle
10
-69.979833339090789
20
109.48486062342226
30
0
40
1.0000837592255962
210
0
220
-0
230
1
100
AcDbArc
50
89.999999995512397
51
269.99999999551159
0
SPLINE
5
137
100
AcDbEntity
8
0
100
AcDbSpline
70
0
71
3
72
11
73
7
74
0
42
0.000000001
43
0.0000000001
44
0.0000000001
40
0.93799434078316757
40
0.93799434078316757
40
0.93799434078316757
40
0.93799434078316757
40
1
40
1
40
1
40
1.000457216114502
40
1.000457216114502
40
1.000457216114502
40
1.000457216114502
10
-69.979833339012472
20
110.48494438264785
30
0
10
-68.361951560158801
20
110.51539894467277
30
0
10
-66.716366742445842
20
110.52139063852266
30
0
10
-65.037801552800616
20
110.50023816901978
30
0
10
-65.025201036887367
20
110.50007938339132
30
0
10
-65.012600520974118
20
110.49992059776285
30
0
10
-65.000000005061423
20
110.49976181213437
30
0
0
SPLINE
5
138
100
AcDbEntity
8
0
100
AcDbSpline
70
0
71
3
72
11
73
7
74
0
42
0.000000001
43
0.0000000001
44
0.0000000001
40
-1.0004572162369061
40
-1.0004572162369061
40
-1.0004572162369061
40
-1.0004572162369061
40
-1
40
-1
40
-1
40
-0.9375551458432676
40
-0.9375551458432676
40
-0.9375551458432676
40
-0.9375551458432676
10
-65.00000000505905
20
110.49976181200688
30
0
10
-64.987399485772642
20
110.49992059767781
30
0
10
-64.974798966486048
20
110.50007938334879
30
0
10
-64.962198447199455
20
110.50023816901978
30
0
10
-63.27174374058275
20
110.52154046448514
30
0
10
-61.614817291392413
20
110.51529560230294
30
0
10
-59.985981798777821
20
110.48425230683749
30
0
0
CIRCLE
5
139
100
AcDbEntity
8
0
100
AcDbCircle
10
-80
20
-25.00000037252903
30
0
40
2.5
210
0
220
-0
230
1
0
LWPOLYLINE
5
140
100
AcDbEntity
8
0
100
AcDbPolyline
90
4
70
1
43
0.0
10
-47.899999999970277
20
-98.009046596707051
10
-47.899999999970262
20
-85.45904659670704
10
-70.899999999946289
20
-85.451210393125635
10
-70.899999999970362
20
-98.001210393125646
0
ARC
5
141
100
AcDbEntity
8
0
100
AcDbCircle
10
-59.985981798777829
20
-109.48417546027565
30
0
40
1.0000768465618393
210
-0
220
0
230
1
100
AcDbArc
50
-89.999999999999588
51
90.00000000000081
0
SPLINE
5
142
100
AcDbEntity
8
0
100
AcDbSpline
70
0
71
3
72
11
73
7
74
0
42
0.000000001
43
0.0000000001
44
0.0000000001
40
0.9375551458432676
40
0.9375551458432676
40
0.9375551458432676
40
0.9375551458432676
40
1
40
1
40
1
40
1.0004572162369061
40
1.0004572162369061
40
1.0004572162369061
40
1.0004572162369061
10
-59.985981798777821
20
-110.48425230683749
30
0
10
-61.614817291392413
20
-110.51529560230294
30
0
10
-63.27174374058275
20
-110.52154046448514
30
0
10
-64.962198447199455
20
-110.50023816901978
30
0
10
-64.974798966486048
20
-110.50007938334879
30
0
10
-64.987399485772642
20
-110.49992059767781
30
0
10
-65.00000000505905
20
-110.49976181200688
30
0
0
SPLINE
5
143
100
AcDbEntity
8
0
100
AcDbSpline
70
0
71
3
72
11
73
7
74
0
42
0.000000001
43
0.0000000001
44
0.0000000001
40
-1.000457216114502
40
-1.000457216114502
40
-1.000457216114502
40
-1.000457216114502
40
-1
40
-1
40
-1
40
-0.93799434078316757
40
-0.93799434078316757
40
-0.93799434078316757
40
-0.93799434078316757
10
-65.000000005061423
20
-110.49976181213437
30
0
10
-65.012600520974118
20
-110.49992059776285
30
0
10
-65.025201036887367
20
-110.50007938339132
30
0
10
-65.037801552800616
20
-110.50023816901978
30
0
10
-66.716366742445842
20
-110.52139063852266
30
0
10
-68.361951560158801
20
-110.51539894467277
30
0
10
-69.979833339012472
20
-110.48494438264785
30
0
0
ARC
5
144
100
AcDbEntity
8
0
100
AcDbCircle
10
-69.979833339090774
20
-109.48486062342226
30
0
40
1.0000837591969081
210
0
220
-0
230
1
100
AcDbArc
50
89.999999918104265
51
269.99999991810427
0
SPLINE
5
145
100
AcDbEntity
8
0
100
AcDbSpline
70
0
71
3
72
11
73
7
74
0
42
0.000000001
43
0.0000000001
44
0.0000000001
40
0.93754047557793074
40
0.93754047557793074
40
0.93754047557793074
40
0.93754047557793074
40
1
40
1
40
1
40
1.0007620269373623
40
1.0007620269373623
40
1.0007620269373623
40
1.0007620269373623
10
-69.979833337661304
20
-108.48477686422535
30
0
10
-68.370587294378055
20
-108.51535732989501
30
0
10
-66.733532143274758
20
-108.52144815667774
30
0
10
-65.063002588001027
20
-108.5003969483663
30
0
10
-65.0420017259448
20
-108.50013230562445
30
0
10
-65.02100086388856
20
-108.49986766288259
30
0
10
-65.000000001832788
20
-108.4996030201407
30
0
0
SPLINE
5
146
100
AcDbEntity
8
0
100
AcDbSpline
70
0
71
3
72
11
73
7
74
0
42
0.000000001
43
0.0000000001
44
0.0000000001
40
-1.0007620269816804
40
-1.0007620269816804
40
-1.0007620269816804
40
-1.0007620269816804
40
-1
40
-1
40
-1
40
-0.93708580945583098
40
-0.93708580945583098
40
-0.93708580945583098
40
-0.93708580945583098
10
-65.000000001831623
20
-108.49960302009457
30
0
10
-64.978999138554173
20
-108.49986766285178
30
0
10
-64.957998275276566
20
-108.50013230560904
30
0
10
-64.936997411998959
20
-108.5003969483663
30
0
10
-63.254307450417677
20
-108.5216013962571
30
0
10
-61.605979253024543
20
-108.51526540219862
30
0
10
-59.985981800178067
20
-108.48409861374078
30
0
0
CIRCLE
5
147
100
AcDbEntity
8
0
100
AcDbCircle
10
-45.499999999970264
20
-91.70904659670704
30
0
40
0.94999999999999751
210
0
220
-0
230
1
0
CIRCLE
5
148
100
AcDbEntity
8
0
100
AcDbCircle
10
-80
20
25.00000037252903
30
0
40
2.5
210
0
220
-0
230
1
0
SPLINE
5
149
100
AcDbEntity
8
0
100
AcDbSpline
70
0
71
3
72
14
73
10
74
0
42
0.000000001
43
0.0000000001
44
0.0000000001
40
0.45419524522572219
40
0.45419524522572219
40
0.45419524522572219
40
0.45419524522572219
40
0.47121791390623557
40
0.47121791390623557
40
0.47121791390623557
40
0.67539136332603866
40
0.67539136332603866
40
0.67539136332603866
40
0.73350543966292392
40
0.73350543966292392
40
0.73350543966292392
40
0.73350543966292392
10
-105.02598670210159
20
106.43093606043833
30
0
10
-104.63637464443494
20
106.51271441507278
30
0
10
-104.24533939581508
20
106.59281342848003
30
0
10
-103.85323448909762
20
106.67142897557177
30
0
10
-99.1502462067387
20
107.61436029433264
30
0
10
-94.312339133479597
20
108.36113770317597
30
0
10
-89.445928345086685
20
108.98535498645515
30
0
10
-88.060797375085656
20
109.16302652481811
30
0
10
-86.670964451788635
20
109.32918450048572
30
0
10
-85.272084827751641
20
109.48162144422894
30
0
0
ARC
5
150
100
AcDbEntity
8
0
100
AcDbCircle
10
-85.272084827752224
20
108.47583757449534
30
0
40
1.0057838697386501
210
-0
220
0
230
1
100
AcDbArc
50
-89.999999999977348
51
89.999999999966803
0
SPLINE
5
151
100
AcDbEntity
8
0
100
AcDbSpline
70
0
71
3
72
14
73
10
74
0
42
0.000000001
43
0.0000000001
44
0.0000000001
40
-0.73050509247134632
40
-0.73050509247134632
40
-0.73050509247134632
40
-0.73050509247134632
40
-0.66649025807489282
40
-0.66649025807489282
40
-0.66649025807489282
40
-0.46682395271262733
40
-0.46682395271262733
40
-0.46682395271262733
40
-0.44808260654973725
40
-0.44808260654973725
40
-0.44808260654973725
40
-0.44808260654973725
10
-85.272084827751826
20
107.47005370475669
30
0
10
-86.796250142385318
20
107.30218518129462
30
0
10
-88.31092985255961
20
107.117827437024
30
0
10
-89.822223096729829
20
106.91983598570891
30
0
10
-94.536042029910419
20
106.30228816339371
30
0
10
-99.237452497906645
20
105.56762684120814
30
0
10
-103.7588982145258
20
104.65018173059048
30
0
10
-104.18329620785838
20
104.56406726890231
30
0
10
-104.60583172800121
20
104.47608762866633
30
0
10
-105.02598580566655
20
104.38606124825634
30
0
0
ARC
5
152
100
AcDbEntity
8
0
100
AcDbCircle
10
-105.02598670217047
20
105.40849855829372
30
0
40
1.0224375021446086
210
0
220
-0
230
1
100
AcDbArc
50
89.99999999614009
51
269.99999999614005
0
ARC
5
153
100
AcDbEntity
8
0
100
AcDbCircle
10
-14.000000000000005
20
9.5
30
0
40
14.000000000000004
210
0
220
0
230
1
100
AcDbArc
50
0
51
90
0
LINE
5
154
100
AcDbEntity
8
0
100
AcDbLine
10
-14.000000000000005
20
23.5
30
0
11
-25
21
23.500000000000007
31
0
0
LINE
5
155
100
AcDbEntity
8
0
100
AcDbLine
10
-25
20
23.500000000000007
30
0
11
-25
21
93.500000000000014
31
0
0
LINE
5
156
100
AcDbEntity
8
0
100
AcDbLine
10
-25
20
93.500000000000014
30
0
11
-5.8986762229001162
21
93.500000000000014
31
0
0
SPLINE
5
157
100
AcDbEntity
8
0
100
AcDbSpline
70
0
71
3
72
18
73
14
74
0
42
0.000000001
43
0.0000000001
44
0.0000000001
40
0
40
0
40
0
40
0
40
0.13672556568542238
40
0.13672556568542238
40
0.2734511313708472
40
0.2734511313708472
40
0.4101766970562708
40
0.4101766970562708
40
0.54690226274169573
40
0.54690226274169573
40
0.66808697476936141
40
0.66808697476936141
40
0.7892716867970262
40
0.7892716867970262
40
0.7892716867970262
40
0.7892716867970262
10
-3.172005048105317
20
99.194371049878143
30
0
10
-2.8862654070402676
20
98.839318041485811
30
0
10
-2.6726073404278732
20
98.431848227567713
30
0
10
-2.4135066999093286
20
97.557945496675643
30
0
10
-2.3705412693472976
20
97.099867566122782
30
0
10
-2.462616978120499
20
96.193026241065496
30
0
10
-2.5967778234947247
20
95.752932743895343
30
0
10
-3.026242472828149
20
94.948943166879161
30
0
10
-3.317440360663404
20
94.592733665597564
30
0
10
-3.9800586769730679
20
94.044990433272332
30
0
10
-4.3336229667540689
20
93.843453923602937
30
0
10
-5.0938105112863319
20
93.569932068710671
30
0
10
-5.4947271828078872
20
93.500000000000014
30
0
10
-5.8986762229001037
20
93.500000000000014
30
0
0
SPLINE
5
158
100
AcDbEntity
8
0
100
AcDbSpline
70
4
71
5
72
21
73
15
74
0
42
0.000000001
43
0.0000000001
44
0.0000000001
40
0.097985513431831761
40
0.097985513431831761
40
0.097985513431831761
40
0.097985513431831761
40
0.097985513431831761
40
0.097985513431831761
40
0.10000000000000001
40
0.20000000000000001
40
0.30000000000000004
40
0.40000000000000002
40
0.5
40
0.59999999999999998
40
0.69999999999999996
40
0.79999999999999993
40
0.89999999999999991
40
1
40
1
40
1
40
1
40
1
40
1
41
1
41
1
41
1
41
1
41
1
41
1
41
1
41
1
41
1
41
1
41
1
41
1
41
1
41
1
41
1
10
-3.1720050481053268
20
99.194371049878157
30
0
10
-3.1882039039847481
20
99.21449934741176
30
0
10
-4.0100907204323395
20
100.23216012343262
30
0
10
-5.7948466758539086
20
102.08258700447622
30
0
10
-8.8996430902794081
20
104.3868414724005
30
0
10
-13.745483825903978
20
106.67308276734516
30
0
10
-20.499910099336685
20
108.63092359976663
30
0
10
-27.574702971714817
20
110.07541213692073
30
0
10
-34.727315812038576
20
111.2508893084154
30
0
10
-41.925095731200024
20
112.23615780079663
30
0
10
-49.252498337787635
20
113.01115436940114
30
0
10
-55.335495848312597
20
113.39980443461914
30
0
10
-60.086034851668195
20
113.52156289829752
30
0
10
-63.346447268996215
20
113.52083727455431
30
0
10
-65
20
113.50000000000001
30
0
0
SPLINE
5
159
100
AcDbEntity
8
0
100
AcDbSpline
70
4
71
5
72
21
73
15
74
0
42
0.000000001
43
0.0000000001
44
0.0000000001
40
-1
40
-1
40
-1
40
-1
40
-1
40
-1
40
-0.89999999999999991
40
-0.79999999999999993
40
-0.69999999999999996
40
-0.59999999999999998
40
-0.5
40
-0.40000000000000002
40
-0.30000000000000004
40
-0.20000000000000001
40
-0.10000000000000001
40
-0.097985513431830901
40
-0.097985513431830901
40
-0.097985513431830901
40
-0.097985513431830901
40
-0.097985513431830901
40
-0.097985513431830901
41
1
41
1
41
1
41
1
41
1
41
1
41
1
41
1
41
1
41
1
41
1
41
1
41
1
41
1
41
1
10
-65
20
113.50000000000001
30
0
10
-66.653552731003785
20
113.52083727455431
30
0
10
-69.913965148331812
20
113.52156289829752
30
0
10
-74.664504151687396
20
113.39980443461914
30
0
10
-80.747501662212358
20
113.01115436940114
30
0
10
-88.074904268799969
20
112.23615780079663
30
0
10
-95.272684187961417
20
111.2508893084154
30
0
10
-102.42529702828519
20
110.07541213692073
30
0
10
-109.50008990066331
20
108.63092359976663
30
0
10
-116.25451617409603
20
106.67308276734516
30
0
10
-121.1003569097206
20
104.38684147240046
30
0
10
-124.2051533241461
20
102.08258700447621
30
0
10
-125.98990927956768
20
100.23216012343258
30
0
10
-126.81179609601529
20
99.214499347411731
30
0
10
-126.82799495189472
20
99.194371049878086
30
0
0
SPLINE
5
160
100
AcDbEntity
8
0
100
AcDbSpline
70
0
71
3
72
18
73
14
74
0
42
0.000000001
43
0.0000000001
44
0.0000000001
40
0
40
0
40
0
40
0
40
0.13672556568542402
40
0.13672556568542402
40
0.27345113137084981
40
0.27345113137084981
40
0.41017669705627269
40
0.41017669705627269
40
0.5469022627416984
40
0.5469022627416984
40
0.66808697476936285
40
0.66808697476936285
40
0.78927168679702664
40
0.78927168679702664
40
0.78927168679702664
40
0.78927168679702664
10
-124.10132377709992
20
93.500000000000014
30
0
10
-124.55707566271799
20
93.500000000000014
30
0
10
-125.0084703119056
20
93.589018477676206
30
0
10
-125.85172983489322
20
93.935071222020824
30
0
10
-126.23553268804152
20
94.188797035840025
30
0
10
-126.8842783541608
20
94.829084616282728
30
0
10
-127.14301880496998
20
95.209524884653547
30
0
10
-127.50010749383917
20
96.048170693836084
30
0
10
-127.59504176940523
20
96.498358323614752
30
0
10
-127.60632326435984
20
97.357985224972978
30
0
10
-127.54165827859362
20
97.759785064885733
30
0
10
-127.27813559779696
20
98.523496466313929
30
0
10
-127.0812561173817
20
98.879674991676552
30
0
10
-126.82799495189472
20
99.1943710498781
30
0
0
LINE
5
161
100
AcDbEntity
8
0
100
AcDbLine
10
-124.10132377709992
20
93.500000000000014
30
0
11
-105
21
93.500000000000014
31
0
0
LINE
5
162
100
AcDbEntity
8
0
100
AcDbLine
10
-105
20
93.500000000000014
30
0
11
-105
21
23.500000000000014
31
0
0
LINE
5
163
100
AcDbEntity
8
0
100
AcDbLine
10
-105
20
23.500000000000014
30
0
11
-116
21
23.500000000000014
31
0
0
ARC
5
164
100
AcDbEntity
8
0
100
AcDbCircle
10
-116
20
9.5000000000000089
30
0
40
14.000000000000005
210
0
220
-0
230
1
100
AcDbArc
50
90
51
180
0
LINE
5
165
100
AcDbEntity
8
0
100
AcDbLine
10
-130
20
9.5000000000000089
30
0
11
-130
21
-9.5000000000000124
31
0
0
ARC
5
166
100
AcDbEntity
8
0
100
AcDbCircle
10
-116
20
-9.5
30
0
40
14.000000000000004
210
0
220
0
230
1
100
AcDbArc
50
180
51
269.99999999999994
0
LINE
5
167
100
AcDbEntity
8
0
100
AcDbLine
10
-116.00000000000001
20
-23.500000000000021
30
0
11
-105
21
-23.500000000000014
31
0
0
LINE
5
168
100
AcDbEntity
8
0
100
AcDbLine
10
-105
20
-23.500000000000014
30
0
11
-105
21
-93.500000000000014
31
0
0
LINE
5
169
100
AcDbEntity
8
0
100
AcDbLine
10
-105
20
-93.500000000000014
30
0
11
-124.10132377709988
21
-93.500000000000014
31
0
0
SPLINE
5
170
100
AcDbEntity
8
0
100
AcDbSpline
70
0
71
3
72
18
73
14
74
0
42
0.000000001
43
0.0000000001
44
0.0000000001
40
0
40
0
40
0
40
0
40
0.13672556568542646
40
0.13672556568542646
40
0.27345113137084925
40
0.27345113137084925
40
0.41017669705627546
40
0.41017669705627546
40
0.54690226274169962
40
0.54690226274169962
40
0.66808697476936518
40
0.66808697476936518
40
0.78927168679703141
40
0.78927168679703141
40
0.78927168679703141
40
0.78927168679703141
10
-126.82799495189468
20
-99.194371049878157
30
0
10
-127.11373459295973
20
-98.839318041485811
30
0
10
-127.3273926595721
20
-98.431848227567713
30
0
10
-127.58649330009065
20
-97.557945496675643
30
0
10
-127.6294587306527
20
-97.099867566122782
30
0
10
-127.53738302187952
20
-96.193026241065496
30
0
10
-127.40322217650528
20
-95.752932743895315
30
0
10
-126.97375752717184
20
-94.948943166879133
30
0
10
-126.6825596393366
20
-94.592733665597549
30
0
10
-126.01994132302693
20
-94.044990433272318
30
0
10
-125.66637703324594
20
-93.843453923602908
30
0
10
-124.90618948871366
20
-93.569932068710642
30
0
10
-124.50527281719211
20
-93.500000000000014
30
0
10
-124.10132377709988
20
-93.500000000000014
30
0
0
SPLINE
5
171
100
AcDbEntity
8
0
100
AcDbSpline
70
4
71
5
72
21
73
15
74
0
42
0.000000001
43
0.0000000001
44
0.0000000001
40
0.097985513431831567
40
0.097985513431831567
40
0.097985513431831567
40
0.097985513431831567
40
0.097985513431831567
40
0.097985513431831567
40
0.10000000000000001
40
0.20000000000000001
40
0.30000000000000004
40
0.40000000000000002
40
0.5
40
0.59999999999999998
40
0.69999999999999996
40
0.79999999999999993
40
0.89999999999999991
40
1
40
1
40
1
40
1
40
1
40
1
41
1
41
1
41
1
41
1
41
1
41
1
41
1
41
1
41
1
41
1
41
1
41
1
41
1
41
1
41
1
10
-126.82799495189468
20
-99.194371049878143
30
0
10
-126.81179609601526
20
-99.214499347411746
30
0
10
-125.98990927956766
20
-100.23216012343258
30
0
10
-124.2051533241461
20
-102.08258700447622
30
0
10
-121.10035690972057
20
-104.3868414724005
30
0
10
-116.25451617409603
20
-106.67308276734516
30
0
10
-109.50008990066331
20
-108.63092359976663
30
0
10
-102.42529702828519
20
-110.07541213692073
30
0
10
-95.272684187961417
20
-111.2508893084154
30
0
10
-88.074904268799969
20
-112.23615780079663
30
0
10
-80.747501662212358
20
-113.01115436940114
30
0
10
-74.664504151687396
20
-113.39980443461914
30
0
10
-69.913965148331812
20
-113.52156289829752
30
0
10
-66.653552731003785
20
-113.52083727455431
30
0
10
-65
20
-113.50000000000001
30
0
0
SPLINE
5
172
100
AcDbEntity
8
0
100
AcDbSpline
70
4
71
5
72
21
73
15
74
0
42
0.000000001
43
0.0000000001
44
0.0000000001
40
-1
40
-1
40
-1
40
-1
40
-1
40
-1
40
-0.89999999999999991
40
-0.79999999999999993
40
-0.69999999999999996
40
-0.59999999999999998
40
-0.5
40
-0.40000000000000002
40
-0.30000000000000004
40
-0.20000000000000001
40
-0.10000000000000001
40
-0.097985513431831706
40
-0.097985513431831706
40
-0.097985513431831706
40
-0.097985513431831706
40
-0.097985513431831706
40
-0.097985513431831706
41
1
41
1
41
1
41
1
41
1
41
1
41
1
41
1
41
1
41
1
41
1
41
1
41
1
41
1
41
1
10
-65
20
-113.50000000000001
30
0
10
-63.346447268996215
20
-113.52083727455431
30
0
10
-60.086034851668195
20
-113.52156289829752
30
0
10
-55.335495848312597
20
-113.39980443461914
30
0
10
-49.252498337787635
20
-113.01115436940114
30
0
10
-41.925095731200024
20
-112.23615780079663
30
0
10
-34.727315812038576
20
-111.2508893084154
30
0
10
-27.574702971714817
20
-110.07541213692073
30
0
10
-20.499910099336685
20
-108.63092359976663
30
0
10
-13.745483825903978
20
-106.67308276734516
30
0
10
-8.8996430902794064
20
-104.38684147240048
30
0
10
-5.7948466758539086
20
-102.08258700447622
30
0
10
-4.0100907204323386
20
-100.23216012343258
30
0
10
-3.1882039039847463
20
-99.21449934741176
30
0
10
-3.1720050481053255
20
-99.194371049878157
30
0
0
SPLINE
5
173
100
AcDbEntity
8
0
100
AcDbSpline
70
0
71
3
72
18
73
14
74
0
42
0.000000001
43
0.0000000001
44
0.0000000001
40
0
40
0
40
0
40
0
40
0.13672556568542496
40
0.13672556568542496
40
0.27345113137084998
40
0.27345113137084998
40
0.41017669705627546
40
0.41017669705627546
40
0.54690226274170095
40
0.54690226274170095
40
0.66808697476936718
40
0.66808697476936718
40
0.78927168679703197
40
0.78927168679703197
40
0.78927168679703197
40
0.78927168679703197
10
-5.898676222900102
20
-93.500000000000014
30
0
10
-5.4429243372820189
20
-93.500000000000014
30
0
10
-4.9915296880944133
20
-93.589018477676206
30
0
10
-4.1482701651067977
20
-93.935071222020824
30
0
10
-3.7644673119584962
20
-94.188797035840025
30
0
10
-3.1157216458392067
20
-94.829084616282756
30
0
10
-2.8569811950300266
20
-95.209524884653547
30
0
10
-2.499892506160835
20
-96.048170693836113
30
0
10
-2.4049582305947874
20
-96.498358323614767
30
0
10
-2.3936767356401494
20
-97.357985224972992
30
0
10
-2.4583417214063816
20
-97.759785064885762
30
0
10
-2.7218644022030682
20
-98.523496466313958
30
0
10
-2.9187438826183287
20
-98.87967499167658
30
0
10
-3.1720050481053037
20
-99.194371049878143
30
0
0
LINE
5
174
100
AcDbEntity
8
0
100
AcDbLine
10
-5.898676222900102
20
-93.500000000000014
30
0
11
-25
21
-93.500000000000014
31
0
0
LINE
5
175
100
AcDbEntity
8
0
100
AcDbLine
10
-25
20
-93.500000000000014
30
0
11
-25
21
-23.500000000000007
31
0
0
LINE
5
176
100
AcDbEntity
8
0
100
AcDbLine
10
-25
20
-23.500000000000007
30
0
11
-14
21
-23.500000000000007
31
0
0
ARC
5
177
100
AcDbEntity
8
0
100
AcDbCircle
10
-14.000000000000002
20
-9.5000000000000036
30
0
40
14.000000000000002
210
0
220
0
230
1
100
AcDbArc
50
-90
51
0
0
LINE
5
178
100
AcDbEntity
8
0
100
AcDbLine
10
-6.6613381477509392e-15
20
-9.5
30
0
11
-2.2204460492503131e-15
21
9.5
31
0
0
ENDSEC
0
SECTION
2
OBJECTS
0
DICTIONARY
5
C
100
AcDbDictionary
3
ACAD_GROUP
350
D
3
ACAD_MLINESTYLE
350
17
0
DICTIONARY
5
D
100
AcDbDictionary
0
DICTIONARY
5
1A
330
C
100
AcDbDictionary
0
DICTIONARY
5
17
100
AcDbDictionary
0
ENDSEC
0
EOF
